<svg width="379" height="323" viewBox="0 0 379 323" fill="none" xmlns="http://www.w3.org/2000/svg">
<ellipse cx="193.5" cy="151" rx="151.5" ry="151" fill="#2A9949" fill-opacity="0.06"/>
<circle cx="194" cy="151" r="111" fill="#D0E7D7"/>
<path fill-rule="evenodd" clip-rule="evenodd" d="M194.001 202.2C222.278 202.2 245.201 179.277 245.201 151C245.201 122.723 222.278 99.7998 194.001 99.7998C165.724 99.7998 142.801 122.723 142.801 151C142.801 179.277 165.724 202.2 194.001 202.2ZM217.726 142.725C220.226 140.226 220.226 136.174 217.726 133.674C215.227 131.175 211.175 131.175 208.675 133.674L187.601 154.749L179.326 146.474C176.827 143.975 172.775 143.975 170.275 146.474C167.776 148.974 167.776 153.026 170.275 155.525L183.075 168.325C185.575 170.825 189.627 170.825 192.126 168.325L217.726 142.725Z" fill="#2A9949"/>
<circle cx="368.5" cy="33.5" r="10.5" fill="#D0E7D7"/>
<circle cx="10.5" cy="113.5" r="10.5" fill="#D0E7D7"/>
<circle cx="315.5" cy="312.5" r="10.5" fill="#D0E7D7"/>
<circle cx="297.5" cy="301.5" r="5.5" fill="#D0E7D7"/>
<circle cx="352.5" cy="68.5" r="5.5" fill="#D0E7D7"/>
</svg>
