<svg width="379" height="323" viewBox="0 0 379 323" fill="none" xmlns="http://www.w3.org/2000/svg">
<ellipse cx="193.5" cy="151" rx="151.5" ry="151" fill="#DE8888" fill-opacity="0.16"/>
<circle cx="194" cy="151" r="111" fill="#DE8888" fill-opacity="0.6"/>
<path fill-rule="evenodd" clip-rule="evenodd" d="M194.001 194.333C217.934 194.333 237.335 174.932 237.335 151C237.335 127.068 217.934 107.667 194.001 107.667C170.069 107.667 150.668 127.068 150.668 151C150.668 174.932 170.069 194.333 194.001 194.333ZM205.492 145.157C206.761 143.888 206.761 141.83 205.492 140.561C204.222 139.292 202.165 139.292 200.896 140.561L194.001 147.455L187.107 140.561C185.838 139.292 183.78 139.292 182.511 140.561C181.242 141.83 181.242 143.888 182.511 145.157L189.405 152.051L182.511 158.946C181.242 160.215 181.242 162.273 182.511 163.542C183.78 164.811 185.838 164.811 187.107 163.542L194.001 156.648L200.896 163.542C202.165 164.811 204.223 164.811 205.492 163.542C206.761 162.273 206.761 160.215 205.492 158.946L198.597 152.051L205.492 145.157Z" fill="#C93B3B"/>
<circle cx="368.5" cy="33.5" r="10.5" fill="#E7AFAF"/>
<circle cx="10.5" cy="113.5" r="10.5" fill="#E7AFAF"/>
<circle cx="315.5" cy="312.5" r="10.5" fill="#E7AFAF"/>
<circle cx="297.5" cy="301.5" r="5.5" fill="#E7AFAF"/>
<circle cx="352.5" cy="68.5" r="5.5" fill="#E7AFAF"/>
</svg>
