<svg width="36" height="36" viewBox="0 0 36 36" fill="none" xmlns="http://www.w3.org/2000/svg">
<path d="M15 15.625L18.6077 18.4153C19.0306 18.7424 19.636 18.679 19.982 18.2713L27 10" stroke="#E99111" stroke-width="2.5" stroke-linecap="round"/>
<path d="M28 18C28 20.0894 27.3455 22.1264 26.1285 23.8248C24.9114 25.5232 23.1929 26.7977 21.2144 27.4693C19.2358 28.1409 17.0966 28.1759 15.0972 27.5694C13.0977 26.9629 11.3384 25.7453 10.0665 24.0876C8.7945 22.43 8.07372 20.4155 8.00535 18.3272C7.93699 16.2389 8.52448 14.1816 9.6853 12.4443C10.8461 10.707 12.522 9.37694 14.4775 8.64094C16.433 7.90494 18.57 7.79996 20.5882 8.34074" stroke="#E99111" stroke-width="2.5" stroke-linecap="round"/>
</svg>
