<svg width="28" height="28" viewBox="0 0 28 28" fill="none" xmlns="http://www.w3.org/2000/svg">
<path fill-rule="evenodd" clip-rule="evenodd" d="M14.0008 25.1998C20.1864 25.1998 25.2008 20.1854 25.2008 13.9998C25.2008 7.81422 20.1864 2.7998 14.0008 2.7998C7.81519 2.7998 2.80078 7.81422 2.80078 13.9998C2.80078 20.1854 7.81519 25.1998 14.0008 25.1998ZM19.1907 12.1898C19.7375 11.643 19.7375 10.7566 19.1907 10.2099C18.644 9.66312 17.7576 9.66312 17.2108 10.2099L12.6008 14.8199L10.7907 13.0099C10.244 12.4631 9.35757 12.4631 8.81083 13.0099C8.2641 13.5566 8.2641 14.443 8.81083 14.9898L11.6108 17.7898C12.1576 18.3365 13.044 18.3365 13.5907 17.7898L19.1907 12.1898Z" fill="#2A9949"/>
</svg>
