<svg width="31" height="31" viewBox="0 0 31 31" fill="none" xmlns="http://www.w3.org/2000/svg">
<circle cx="15.5" cy="15.5" r="15.5" fill="#E99111" fill-opacity="0.24"/>
<g clip-path="url(#clip0_588_5096)">
<path d="M15.2513 21.8332C15.2513 22.2474 15.5871 22.5832 16.0013 22.5832C16.4155 22.5832 16.7513 22.2474 16.7513 21.8332H15.2513ZM16.7513 10.1665C16.7513 9.75229 16.4155 9.4165 16.0013 9.4165C15.5871 9.4165 15.2513 9.75229 15.2513 10.1665H16.7513ZM17.9245 13.1055C18.1316 13.4642 18.5903 13.5871 18.949 13.38C19.3077 13.1729 19.4306 12.7142 19.2235 12.3555L17.9245 13.1055ZM18.261 12.1884L17.6115 12.5634V12.5634L18.261 12.1884ZM15.2764 15.7332L15.5353 15.0293L15.5353 15.0293L15.2764 15.7332ZM16.7264 16.2665L16.9853 15.5626L16.9853 15.5626L16.7264 16.2665ZM13.7417 19.8113L13.0922 20.1863L13.7417 19.8113ZM14.0783 18.8942C13.8712 18.5355 13.4125 18.4126 13.0538 18.6197C12.6951 18.8268 12.5722 19.2855 12.7793 19.6442L14.0783 18.8942ZM17.1079 20.7133L16.7329 20.0637L17.1079 20.7133ZM14.8949 11.2864L15.2699 11.936L14.8949 11.2864ZM23.5846 15.9998C23.5846 20.188 20.1895 23.5832 16.0013 23.5832V25.0832C21.0179 25.0832 25.0846 21.0164 25.0846 15.9998H23.5846ZM16.0013 23.5832C11.8131 23.5832 8.41797 20.188 8.41797 15.9998H6.91797C6.91797 21.0164 10.9847 25.0832 16.0013 25.0832V23.5832ZM8.41797 15.9998C8.41797 11.8117 11.8131 8.4165 16.0013 8.4165V6.9165C10.9847 6.9165 6.91797 10.9833 6.91797 15.9998H8.41797ZM16.0013 8.4165C20.1895 8.4165 23.5846 11.8117 23.5846 15.9998H25.0846C25.0846 10.9833 21.0179 6.9165 16.0013 6.9165V8.4165ZM19.2235 12.3555L18.9106 11.8134L17.6115 12.5634L17.9245 13.1055L19.2235 12.3555ZM14.3913 19.4363L14.0783 18.8942L12.7793 19.6442L13.0922 20.1863L14.3913 19.4363ZM16.4675 16.9704C17.8315 17.4721 17.9915 19.3371 16.7329 20.0637L17.4829 21.3628C19.8429 20.0002 19.5429 16.5034 16.9853 15.5626L16.4675 16.9704ZM14.5199 10.6369C12.1599 11.9995 12.4599 15.4963 15.0174 16.4371L15.5353 15.0293C14.1713 14.5276 14.0113 12.6626 15.2699 11.936L14.5199 10.6369ZM16.7513 21.8332V21.0407H15.2513V21.8332H16.7513ZM16.7513 21.0407V15.9998H15.2513V21.0407H16.7513ZM16.7329 20.0637C16.4883 20.205 16.2254 20.2785 15.9637 20.2917L16.0389 21.7898C16.5326 21.765 17.0275 21.6257 17.4829 21.3628L16.7329 20.0637ZM15.9637 20.2917C15.3396 20.323 14.7235 20.0118 14.3913 19.4363L13.0922 20.1863C13.7168 21.2681 14.8747 21.8482 16.0389 21.7898L15.9637 20.2917ZM15.0174 16.437L15.7424 16.7037L16.2602 15.296L15.5353 15.0293L15.0174 16.437ZM15.7424 16.7037L16.4676 16.9704L16.9853 15.5626L16.2602 15.2959L15.7424 16.7037ZM16.7513 15.9998L16.7513 10.959L15.2513 10.959L15.2513 15.9998H16.7513ZM16.7513 10.959V10.1665H15.2513V10.959H16.7513ZM18.9106 11.8134C18.286 10.7316 17.128 10.1514 15.9637 10.2099L16.0389 11.708C16.6631 11.6767 17.2792 11.9879 17.6115 12.5634L18.9106 11.8134ZM15.9637 10.2099C15.4701 10.2347 14.9752 10.3741 14.5199 10.6369L15.2699 11.936C15.5145 11.7947 15.7773 11.7212 16.0389 11.708L15.9637 10.2099Z" fill="#E99111"/>
</g>
<defs>
<clipPath id="clip0_588_5096">
<rect width="20" height="20" fill="white" transform="translate(6 6)"/>
</clipPath>
</defs>
</svg>
