<svg width="20" height="20" viewBox="0 0 20 20" fill="none" xmlns="http://www.w3.org/2000/svg">
<g clip-path="url(#clip0_588_5098)">
<path d="M9.2513 15.8332C9.2513 16.2474 9.58709 16.5832 10.0013 16.5832C10.4155 16.5832 10.7513 16.2474 10.7513 15.8332H9.2513ZM10.7513 4.1665C10.7513 3.75229 10.4155 3.4165 10.0013 3.4165C9.58709 3.4165 9.2513 3.75229 9.2513 4.1665H10.7513ZM11.9245 7.10546C12.1316 7.46418 12.5903 7.58709 12.949 7.37998C13.3077 7.17287 13.4306 6.71418 13.2235 6.35546L11.9245 7.10546ZM12.261 6.18838L11.6115 6.56338V6.56338L12.261 6.18838ZM9.27635 9.73316L9.53529 9.02927L9.53526 9.02926L9.27635 9.73316ZM10.7264 10.2665L10.9853 9.56263L10.9853 9.56262L10.7264 10.2665ZM7.74175 13.8113L7.09223 14.1863L7.74175 13.8113ZM8.0783 12.8942C7.87119 12.5355 7.4125 12.4126 7.05378 12.6197C6.69506 12.8268 6.57215 13.2855 6.77926 13.6442L8.0783 12.8942ZM11.1079 14.7133L10.7329 14.0637L11.1079 14.7133ZM8.89492 5.28643L9.26992 5.93595L8.89492 5.28643ZM17.5846 9.99984C17.5846 14.188 14.1895 17.5832 10.0013 17.5832V19.0832C15.0179 19.0832 19.0846 15.0164 19.0846 9.99984H17.5846ZM10.0013 17.5832C5.81314 17.5832 2.41797 14.188 2.41797 9.99984H0.917969C0.917969 15.0164 4.98472 19.0832 10.0013 19.0832V17.5832ZM2.41797 9.99984C2.41797 5.81168 5.81314 2.4165 10.0013 2.4165V0.916504C4.98472 0.916504 0.917969 4.98325 0.917969 9.99984H2.41797ZM10.0013 2.4165C14.1895 2.4165 17.5846 5.81168 17.5846 9.99984H19.0846C19.0846 4.98325 15.0179 0.916504 10.0013 0.916504V2.4165ZM13.2235 6.35546L12.9106 5.81338L11.6115 6.56338L11.9245 7.10546L13.2235 6.35546ZM8.39127 13.4363L8.0783 12.8942L6.77926 13.6442L7.09223 14.1863L8.39127 13.4363ZM10.4675 10.9704C11.8315 11.4721 11.9915 13.3371 10.7329 14.0637L11.4829 15.3628C13.8429 14.0002 13.5429 10.5034 10.9853 9.56263L10.4675 10.9704ZM8.51992 4.63691C6.15992 5.99946 6.45988 9.49633 9.01745 10.4371L9.53526 9.02926C8.17126 8.52756 8.01129 6.66262 9.26992 5.93595L8.51992 4.63691ZM10.7513 15.8332V15.0407H9.2513V15.8332H10.7513ZM10.7513 15.0407V9.99984H9.2513V15.0407H10.7513ZM10.7329 14.0637C10.4883 14.205 10.2254 14.2785 9.96372 14.2917L10.0389 15.7898C10.5326 15.765 11.0275 15.6257 11.4829 15.3628L10.7329 14.0637ZM9.96372 14.2917C9.33961 14.323 8.72353 14.0118 8.39127 13.4363L7.09223 14.1863C7.71678 15.2681 8.87467 15.8482 10.0389 15.7898L9.96372 14.2917ZM9.01742 10.437L9.74237 10.7037L10.2602 9.29595L9.53529 9.02927L9.01742 10.437ZM9.74242 10.7037L10.4676 10.9704L10.9853 9.56262L10.2602 9.29593L9.74242 10.7037ZM10.7513 9.99984L10.7513 4.95898L9.2513 4.95898L9.2513 9.99984H10.7513ZM10.7513 4.95898V4.1665H9.2513V4.95898H10.7513ZM12.9106 5.81338C12.286 4.73155 11.128 4.15142 9.96366 4.20993L10.0389 5.70804C10.6631 5.67667 11.2792 5.98785 11.6115 6.56338L12.9106 5.81338ZM9.96366 4.20993C9.47008 4.23473 8.97518 4.37407 8.51992 4.63691L9.26992 5.93595C9.51449 5.79475 9.77734 5.72118 10.0389 5.70804L9.96366 4.20993Z" fill="#E99111"/>
</g>
<defs>
<clipPath id="clip0_588_5098">
<rect width="20" height="20" fill="white"/>
</clipPath>
</defs>
</svg>
