<svg width="31" height="31" viewBox="0 0 31 31" fill="none" xmlns="http://www.w3.org/2000/svg">
<circle cx="15.5" cy="15.5" r="15.5" fill="#185782" fill-opacity="0.24"/>
<path fill-rule="evenodd" clip-rule="evenodd" d="M17.6856 9.93564L17.7607 9.97897C18.4091 10.3533 18.9498 10.6655 19.3458 10.971C19.7637 11.2935 20.0954 11.6637 20.2343 12.1822C20.3732 12.7006 20.2711 13.1871 20.0704 13.6753C19.8803 14.1379 19.5681 14.6786 19.1937 15.327L15.9641 20.9209C15.7166 21.3503 15.521 21.6898 15.2232 21.9457C14.9254 22.2016 14.5603 22.3439 14.0985 22.5239L13.9737 22.5726C13.1169 22.9074 12.4106 23.1833 11.8322 23.3185C11.2273 23.4598 10.6432 23.4774 10.0988 23.1631C9.55443 22.8488 9.27763 22.3342 9.09757 21.7396C8.92541 21.1712 8.81126 20.4215 8.67277 19.5121L8.65256 19.3797C8.57753 18.8898 8.51821 18.5024 8.5909 18.1166C8.59999 18.0683 8.61101 18.0208 8.62382 17.9738C8.71347 17.6445 8.89084 17.3379 9.10797 16.9625L12.3377 11.3686C12.712 10.7202 13.0242 10.1795 13.3297 9.78356C13.6522 9.36565 14.0223 9.03396 14.5408 8.89504C15.0593 8.75611 15.5457 8.85828 16.034 9.05894C16.4965 9.24906 17.0372 9.56125 17.6856 9.93564ZM13.086 12.5724L17.777 15.2808L14.9241 20.2221C14.6133 20.7604 14.5245 20.898 14.4086 20.9976C14.2926 21.0972 14.1432 21.1643 13.5642 21.3905C12.6505 21.7475 12.0282 21.989 11.5478 22.1012C11.0837 22.2097 10.8732 22.1668 10.7238 22.0805C10.5745 21.9943 10.432 21.8334 10.2939 21.3773C10.1509 20.9052 10.0489 20.2455 9.90118 19.2757C9.80759 18.6612 9.791 18.4982 9.81929 18.348C9.84759 18.1978 9.92236 18.0521 10.2332 17.5137L13.086 12.5724ZM18.9142 13.2001C18.8038 13.4688 18.6349 13.7848 18.4007 14.1975L13.7123 11.4906C13.9526 11.0815 14.1418 10.7772 14.3193 10.5472C14.5563 10.24 14.716 10.1422 14.8644 10.1024C15.0127 10.0627 15.1999 10.0676 15.5588 10.2151C15.9345 10.3695 16.4025 10.6382 17.0982 11.0398C17.7939 11.4415 18.2606 11.7125 18.5821 11.9606C18.8893 12.1977 18.9871 12.3573 19.0269 12.5057C19.0666 12.654 19.0617 12.8412 18.9142 13.2001Z" fill="#185782"/>
<path d="M16.5498 22.8759C16.5498 22.5307 16.8296 22.2509 17.1748 22.2509H22.1748C22.52 22.2509 22.7998 22.5307 22.7998 22.8759C22.7998 23.2211 22.52 23.5009 22.1748 23.5009H17.1748C16.8296 23.5009 16.5498 23.2211 16.5498 22.8759Z" fill="#185782"/>
</svg>
