<svg width="31" height="31" viewBox="0 0 31 31" fill="none" xmlns="http://www.w3.org/2000/svg">
<circle cx="15.5" cy="15.5" r="15.5" fill="#185782" fill-opacity="0.24"/>
<g clip-path="url(#clip0_588_5084)">
<path d="M16.4987 15.3335C16.4987 15.0574 16.2748 14.8335 15.9987 14.8335C15.7226 14.8335 15.4987 15.0574 15.4987 15.3335V19.3335C15.4987 19.6096 15.7226 19.8335 15.9987 19.8335C16.2748 19.8335 16.4987 19.6096 16.4987 19.3335V15.3335Z" fill="#065B99"/>
<path fill-rule="evenodd" clip-rule="evenodd" d="M15.9987 8.8335C12.0407 8.8335 8.83203 12.0421 8.83203 16.0002C8.83203 19.9582 12.0407 23.1668 15.9987 23.1668C19.9567 23.1668 23.1654 19.9582 23.1654 16.0002C23.1654 12.0421 19.9567 8.8335 15.9987 8.8335ZM9.83203 16.0002C9.83203 12.5944 12.5929 9.8335 15.9987 9.8335C19.4045 9.8335 22.1654 12.5944 22.1654 16.0002C22.1654 19.4059 19.4045 22.1668 15.9987 22.1668C12.5929 22.1668 9.83203 19.4059 9.83203 16.0002Z" fill="#065B99"/>
<path d="M16.6654 13.3335C16.6654 13.7017 16.3669 14.0002 15.9987 14.0002C15.6305 14.0002 15.332 13.7017 15.332 13.3335C15.332 12.9653 15.6305 12.6668 15.9987 12.6668C16.3669 12.6668 16.6654 12.9653 16.6654 13.3335Z" fill="#065B99"/>
</g>
<defs>
<clipPath id="clip0_588_5084">
<rect width="16" height="16" fill="white" transform="translate(8 8)"/>
</clipPath>
</defs>
</svg>
