<svg width="16" height="16" viewBox="0 0 16 16" fill="none" xmlns="http://www.w3.org/2000/svg">
<g clip-path="url(#clip0_918_4954)">
<path d="M8.4987 7.3335C8.4987 7.05735 8.27484 6.8335 7.9987 6.8335C7.72255 6.8335 7.4987 7.05735 7.4987 7.3335V11.3335C7.4987 11.6096 7.72255 11.8335 7.9987 11.8335C8.27484 11.8335 8.4987 11.6096 8.4987 11.3335V7.3335Z" fill="#065B99"/>
<path fill-rule="evenodd" clip-rule="evenodd" d="M7.9987 0.833496C4.04066 0.833496 0.832031 4.04212 0.832031 8.00016C0.832031 11.9582 4.04066 15.1668 7.9987 15.1668C11.9567 15.1668 15.1654 11.9582 15.1654 8.00016C15.1654 4.04212 11.9567 0.833496 7.9987 0.833496ZM1.83203 8.00016C1.83203 4.59441 4.59294 1.8335 7.9987 1.8335C11.4045 1.8335 14.1654 4.59441 14.1654 8.00016C14.1654 11.4059 11.4045 14.1668 7.9987 14.1668C4.59294 14.1668 1.83203 11.4059 1.83203 8.00016Z" fill="#065B99"/>
<path d="M8.66536 5.3335C8.66536 5.70169 8.36688 6.00016 7.99869 6.00016C7.63051 6.00016 7.33203 5.70169 7.33203 5.3335C7.33203 4.96531 7.63051 4.66683 7.99869 4.66683C8.36688 4.66683 8.66536 4.96531 8.66536 5.3335Z" fill="#065B99"/>
</g>
<defs>
<clipPath id="clip0_918_4954">
<rect width="16" height="16" fill="white"/>
</clipPath>
</defs>
</svg>
